<mxfile host="app.diagrams.net" modified="2024-03-12T13:03:15.402Z" agent="Mozilla/5.0 (Windows NT 10.0; Win64; x64) AppleWebKit/537.36 (KHTML, like Gecko) Chrome/122.0.0.0 Safari/537.36" etag="XwUQ4Xfk-yn3R3n-cvJp" version="24.0.2" type="device">
  <diagram name="Page-1" id="RGTplK8sVHclERY1kx8t">
    <mxGraphModel dx="2390" dy="1313" grid="0" gridSize="10" guides="1" tooltips="1" connect="1" arrows="1" fold="1" page="1" pageScale="1" pageWidth="4681" pageHeight="3300" math="0" shadow="0">
      <root>
        <mxCell id="0" />
        <mxCell id="1" parent="0" />
        <mxCell id="jo4Ov761HwDgIil726cr-43" value="" style="rounded=0;whiteSpace=wrap;html=1;" vertex="1" parent="1">
          <mxGeometry x="1436" y="38" width="1766" height="390" as="geometry" />
        </mxCell>
        <mxCell id="jo4Ov761HwDgIil726cr-36" style="edgeStyle=none;curved=1;rounded=0;orthogonalLoop=1;jettySize=auto;html=1;exitX=0.5;exitY=1;exitDx=0;exitDy=0;fontSize=12;startSize=8;endSize=8;" edge="1" parent="1" source="L4kyRhPy_DWvF-wbbvoc-1" target="L4kyRhPy_DWvF-wbbvoc-6">
          <mxGeometry relative="1" as="geometry" />
        </mxCell>
        <mxCell id="jo4Ov761HwDgIil726cr-38" style="edgeStyle=orthogonalEdgeStyle;rounded=0;orthogonalLoop=1;jettySize=auto;html=1;exitX=0.5;exitY=1;exitDx=0;exitDy=0;entryX=0.5;entryY=0;entryDx=0;entryDy=0;fontSize=12;startSize=8;endSize=8;" edge="1" parent="1" source="L4kyRhPy_DWvF-wbbvoc-1" target="jo4Ov761HwDgIil726cr-17">
          <mxGeometry relative="1" as="geometry" />
        </mxCell>
        <mxCell id="jo4Ov761HwDgIil726cr-39" style="edgeStyle=orthogonalEdgeStyle;rounded=0;orthogonalLoop=1;jettySize=auto;html=1;exitX=0.5;exitY=1;exitDx=0;exitDy=0;entryX=0.5;entryY=0;entryDx=0;entryDy=0;fontSize=12;startSize=8;endSize=8;" edge="1" parent="1" source="L4kyRhPy_DWvF-wbbvoc-1" target="L4kyRhPy_DWvF-wbbvoc-2">
          <mxGeometry relative="1" as="geometry" />
        </mxCell>
        <mxCell id="jo4Ov761HwDgIil726cr-40" style="edgeStyle=orthogonalEdgeStyle;rounded=0;orthogonalLoop=1;jettySize=auto;html=1;exitX=0.5;exitY=1;exitDx=0;exitDy=0;entryX=0.5;entryY=0;entryDx=0;entryDy=0;fontSize=12;startSize=8;endSize=8;" edge="1" parent="1" source="L4kyRhPy_DWvF-wbbvoc-1" target="jo4Ov761HwDgIil726cr-4">
          <mxGeometry relative="1" as="geometry" />
        </mxCell>
        <mxCell id="jo4Ov761HwDgIil726cr-41" style="edgeStyle=orthogonalEdgeStyle;rounded=0;orthogonalLoop=1;jettySize=auto;html=1;exitX=0.5;exitY=1;exitDx=0;exitDy=0;entryX=0.5;entryY=0;entryDx=0;entryDy=0;fontSize=12;startSize=8;endSize=8;" edge="1" parent="1" source="L4kyRhPy_DWvF-wbbvoc-1" target="L4kyRhPy_DWvF-wbbvoc-11">
          <mxGeometry relative="1" as="geometry" />
        </mxCell>
        <mxCell id="jo4Ov761HwDgIil726cr-42" style="edgeStyle=orthogonalEdgeStyle;rounded=0;orthogonalLoop=1;jettySize=auto;html=1;exitX=0.5;exitY=1;exitDx=0;exitDy=0;entryX=0.5;entryY=0;entryDx=0;entryDy=0;fontSize=12;startSize=8;endSize=8;" edge="1" parent="1" source="L4kyRhPy_DWvF-wbbvoc-1" target="L4kyRhPy_DWvF-wbbvoc-9">
          <mxGeometry relative="1" as="geometry" />
        </mxCell>
        <mxCell id="L4kyRhPy_DWvF-wbbvoc-1" value="ЭС по выбору средства разработки" style="rounded=0;whiteSpace=wrap;html=1;gradientColor=none;" parent="1" vertex="1">
          <mxGeometry x="2261" y="50" width="160" height="70" as="geometry" />
        </mxCell>
        <mxCell id="L4kyRhPy_DWvF-wbbvoc-80" style="edgeStyle=orthogonalEdgeStyle;rounded=0;orthogonalLoop=1;jettySize=auto;html=1;exitX=0.5;exitY=1;exitDx=0;exitDy=0;entryX=0.5;entryY=0;entryDx=0;entryDy=0;" parent="1" source="L4kyRhPy_DWvF-wbbvoc-2" target="L4kyRhPy_DWvF-wbbvoc-28" edge="1">
          <mxGeometry relative="1" as="geometry" />
        </mxCell>
        <mxCell id="L4kyRhPy_DWvF-wbbvoc-81" style="edgeStyle=orthogonalEdgeStyle;rounded=0;orthogonalLoop=1;jettySize=auto;html=1;exitX=0.5;exitY=1;exitDx=0;exitDy=0;" parent="1" source="L4kyRhPy_DWvF-wbbvoc-2" target="L4kyRhPy_DWvF-wbbvoc-29" edge="1">
          <mxGeometry relative="1" as="geometry" />
        </mxCell>
        <mxCell id="L4kyRhPy_DWvF-wbbvoc-82" style="edgeStyle=orthogonalEdgeStyle;rounded=0;orthogonalLoop=1;jettySize=auto;html=1;exitX=0.5;exitY=1;exitDx=0;exitDy=0;entryX=0.5;entryY=0;entryDx=0;entryDy=0;" parent="1" source="L4kyRhPy_DWvF-wbbvoc-2" target="L4kyRhPy_DWvF-wbbvoc-30" edge="1">
          <mxGeometry relative="1" as="geometry" />
        </mxCell>
        <mxCell id="L4kyRhPy_DWvF-wbbvoc-83" style="edgeStyle=orthogonalEdgeStyle;rounded=0;orthogonalLoop=1;jettySize=auto;html=1;exitX=0.5;exitY=1;exitDx=0;exitDy=0;entryX=0.5;entryY=0;entryDx=0;entryDy=0;" parent="1" source="L4kyRhPy_DWvF-wbbvoc-2" target="L4kyRhPy_DWvF-wbbvoc-31" edge="1">
          <mxGeometry relative="1" as="geometry" />
        </mxCell>
        <mxCell id="L4kyRhPy_DWvF-wbbvoc-2" value="Специфика задач" style="rounded=0;whiteSpace=wrap;html=1;" parent="1" vertex="1">
          <mxGeometry x="1583" y="216" width="110" height="40" as="geometry" />
        </mxCell>
        <mxCell id="L4kyRhPy_DWvF-wbbvoc-75" style="edgeStyle=orthogonalEdgeStyle;rounded=0;orthogonalLoop=1;jettySize=auto;html=1;exitX=0.5;exitY=1;exitDx=0;exitDy=0;" parent="1" source="L4kyRhPy_DWvF-wbbvoc-6" target="L4kyRhPy_DWvF-wbbvoc-52" edge="1">
          <mxGeometry relative="1" as="geometry" />
        </mxCell>
        <mxCell id="L4kyRhPy_DWvF-wbbvoc-76" style="edgeStyle=orthogonalEdgeStyle;rounded=0;orthogonalLoop=1;jettySize=auto;html=1;exitX=0.5;exitY=1;exitDx=0;exitDy=0;" parent="1" source="L4kyRhPy_DWvF-wbbvoc-6" target="L4kyRhPy_DWvF-wbbvoc-53" edge="1">
          <mxGeometry relative="1" as="geometry" />
        </mxCell>
        <mxCell id="L4kyRhPy_DWvF-wbbvoc-6" value="Платно?" style="rounded=0;whiteSpace=wrap;html=1;" parent="1" vertex="1">
          <mxGeometry x="2286" y="216" width="110" height="40" as="geometry" />
        </mxCell>
        <mxCell id="L4kyRhPy_DWvF-wbbvoc-72" style="edgeStyle=orthogonalEdgeStyle;rounded=0;orthogonalLoop=1;jettySize=auto;html=1;exitX=0.5;exitY=1;exitDx=0;exitDy=0;entryX=0.5;entryY=0;entryDx=0;entryDy=0;" parent="1" source="L4kyRhPy_DWvF-wbbvoc-9" target="L4kyRhPy_DWvF-wbbvoc-34" edge="1">
          <mxGeometry relative="1" as="geometry" />
        </mxCell>
        <mxCell id="L4kyRhPy_DWvF-wbbvoc-74" style="edgeStyle=orthogonalEdgeStyle;rounded=0;orthogonalLoop=1;jettySize=auto;html=1;exitX=0.5;exitY=1;exitDx=0;exitDy=0;entryX=0.5;entryY=0;entryDx=0;entryDy=0;" parent="1" source="L4kyRhPy_DWvF-wbbvoc-9" target="L4kyRhPy_DWvF-wbbvoc-54" edge="1">
          <mxGeometry relative="1" as="geometry" />
        </mxCell>
        <mxCell id="jo4Ov761HwDgIil726cr-34" style="edgeStyle=none;curved=1;rounded=0;orthogonalLoop=1;jettySize=auto;html=1;exitX=0.5;exitY=1;exitDx=0;exitDy=0;fontSize=12;startSize=8;endSize=8;" edge="1" parent="1" source="L4kyRhPy_DWvF-wbbvoc-9" target="L4kyRhPy_DWvF-wbbvoc-35">
          <mxGeometry relative="1" as="geometry" />
        </mxCell>
        <mxCell id="L4kyRhPy_DWvF-wbbvoc-9" value="ОС" style="rounded=0;whiteSpace=wrap;html=1;" parent="1" vertex="1">
          <mxGeometry x="3017.5" y="216" width="110" height="40" as="geometry" />
        </mxCell>
        <mxCell id="L4kyRhPy_DWvF-wbbvoc-64" style="edgeStyle=orthogonalEdgeStyle;rounded=0;orthogonalLoop=1;jettySize=auto;html=1;exitX=0.5;exitY=1;exitDx=0;exitDy=0;entryX=0.5;entryY=0;entryDx=0;entryDy=0;" parent="1" source="L4kyRhPy_DWvF-wbbvoc-11" target="L4kyRhPy_DWvF-wbbvoc-55" edge="1">
          <mxGeometry relative="1" as="geometry" />
        </mxCell>
        <mxCell id="L4kyRhPy_DWvF-wbbvoc-65" style="edgeStyle=orthogonalEdgeStyle;rounded=0;orthogonalLoop=1;jettySize=auto;html=1;exitX=0.5;exitY=1;exitDx=0;exitDy=0;" parent="1" source="L4kyRhPy_DWvF-wbbvoc-11" target="L4kyRhPy_DWvF-wbbvoc-56" edge="1">
          <mxGeometry relative="1" as="geometry" />
        </mxCell>
        <mxCell id="L4kyRhPy_DWvF-wbbvoc-66" style="edgeStyle=orthogonalEdgeStyle;rounded=0;orthogonalLoop=1;jettySize=auto;html=1;exitX=0.5;exitY=1;exitDx=0;exitDy=0;entryX=0.5;entryY=0;entryDx=0;entryDy=0;" parent="1" source="L4kyRhPy_DWvF-wbbvoc-11" target="L4kyRhPy_DWvF-wbbvoc-57" edge="1">
          <mxGeometry relative="1" as="geometry" />
        </mxCell>
        <mxCell id="L4kyRhPy_DWvF-wbbvoc-11" value="Отладка" style="rounded=0;whiteSpace=wrap;html=1;" parent="1" vertex="1">
          <mxGeometry x="2754" y="216" width="110" height="40" as="geometry" />
        </mxCell>
        <mxCell id="L4kyRhPy_DWvF-wbbvoc-28" value="Backend" style="rounded=0;whiteSpace=wrap;html=1;" parent="1" vertex="1">
          <mxGeometry x="1447" y="357" width="65" height="40" as="geometry" />
        </mxCell>
        <mxCell id="L4kyRhPy_DWvF-wbbvoc-29" value="Просто средство" style="rounded=0;whiteSpace=wrap;html=1;" parent="1" vertex="1">
          <mxGeometry x="1652" y="357" width="65" height="40" as="geometry" />
        </mxCell>
        <mxCell id="L4kyRhPy_DWvF-wbbvoc-30" value="Data Scientist" style="rounded=0;whiteSpace=wrap;html=1;" parent="1" vertex="1">
          <mxGeometry x="1549" y="357" width="65" height="40" as="geometry" />
        </mxCell>
        <mxCell id="L4kyRhPy_DWvF-wbbvoc-31" value="Mobile Dev" style="rounded=0;whiteSpace=wrap;html=1;" parent="1" vertex="1">
          <mxGeometry x="1755" y="357" width="65" height="40" as="geometry" />
        </mxCell>
        <mxCell id="L4kyRhPy_DWvF-wbbvoc-34" value="Windows" style="rounded=0;whiteSpace=wrap;html=1;" parent="1" vertex="1">
          <mxGeometry x="2960" y="357" width="55" height="40" as="geometry" />
        </mxCell>
        <mxCell id="L4kyRhPy_DWvF-wbbvoc-35" value="Linux" style="rounded=0;whiteSpace=wrap;html=1;" parent="1" vertex="1">
          <mxGeometry x="3045" y="357" width="55" height="40" as="geometry" />
        </mxCell>
        <mxCell id="L4kyRhPy_DWvF-wbbvoc-52" value="Да" style="rounded=0;whiteSpace=wrap;html=1;" parent="1" vertex="1">
          <mxGeometry x="2276" y="357" width="40" height="40" as="geometry" />
        </mxCell>
        <mxCell id="L4kyRhPy_DWvF-wbbvoc-53" value="Нет" style="rounded=0;whiteSpace=wrap;html=1;" parent="1" vertex="1">
          <mxGeometry x="2366" y="357" width="40" height="40" as="geometry" />
        </mxCell>
        <mxCell id="L4kyRhPy_DWvF-wbbvoc-54" value="MacOS" style="rounded=0;whiteSpace=wrap;html=1;" parent="1" vertex="1">
          <mxGeometry x="3136" y="357" width="55" height="40" as="geometry" />
        </mxCell>
        <mxCell id="L4kyRhPy_DWvF-wbbvoc-55" value="Да" style="rounded=0;whiteSpace=wrap;html=1;" parent="1" vertex="1">
          <mxGeometry x="2709" y="357" width="40" height="40" as="geometry" />
        </mxCell>
        <mxCell id="L4kyRhPy_DWvF-wbbvoc-56" value="Нет" style="rounded=0;whiteSpace=wrap;html=1;" parent="1" vertex="1">
          <mxGeometry x="2789" y="357" width="40" height="40" as="geometry" />
        </mxCell>
        <mxCell id="L4kyRhPy_DWvF-wbbvoc-57" value="Не важно" style="rounded=0;whiteSpace=wrap;html=1;" parent="1" vertex="1">
          <mxGeometry x="2869" y="357" width="40" height="40" as="geometry" />
        </mxCell>
        <mxCell id="jo4Ov761HwDgIil726cr-1" style="edgeStyle=orthogonalEdgeStyle;rounded=0;orthogonalLoop=1;jettySize=auto;html=1;exitX=0.5;exitY=1;exitDx=0;exitDy=0;entryX=0.5;entryY=0;entryDx=0;entryDy=0;" edge="1" parent="1" source="jo4Ov761HwDgIil726cr-4" target="jo4Ov761HwDgIil726cr-5">
          <mxGeometry relative="1" as="geometry" />
        </mxCell>
        <mxCell id="jo4Ov761HwDgIil726cr-2" style="edgeStyle=orthogonalEdgeStyle;rounded=0;orthogonalLoop=1;jettySize=auto;html=1;exitX=0.5;exitY=1;exitDx=0;exitDy=0;" edge="1" parent="1" source="jo4Ov761HwDgIil726cr-4" target="jo4Ov761HwDgIil726cr-6">
          <mxGeometry relative="1" as="geometry" />
        </mxCell>
        <mxCell id="jo4Ov761HwDgIil726cr-3" style="edgeStyle=orthogonalEdgeStyle;rounded=0;orthogonalLoop=1;jettySize=auto;html=1;exitX=0.5;exitY=1;exitDx=0;exitDy=0;entryX=0.5;entryY=0;entryDx=0;entryDy=0;" edge="1" parent="1" source="jo4Ov761HwDgIil726cr-4" target="jo4Ov761HwDgIil726cr-7">
          <mxGeometry relative="1" as="geometry" />
        </mxCell>
        <mxCell id="jo4Ov761HwDgIil726cr-4" value="GIt" style="rounded=0;whiteSpace=wrap;html=1;" vertex="1" parent="1">
          <mxGeometry x="2499" y="216" width="110" height="40" as="geometry" />
        </mxCell>
        <mxCell id="jo4Ov761HwDgIil726cr-5" value="Да" style="rounded=0;whiteSpace=wrap;html=1;" vertex="1" parent="1">
          <mxGeometry x="2454" y="357" width="40" height="40" as="geometry" />
        </mxCell>
        <mxCell id="jo4Ov761HwDgIil726cr-6" value="Нет" style="rounded=0;whiteSpace=wrap;html=1;" vertex="1" parent="1">
          <mxGeometry x="2534" y="357" width="40" height="40" as="geometry" />
        </mxCell>
        <mxCell id="jo4Ov761HwDgIil726cr-7" value="Не важно" style="rounded=0;whiteSpace=wrap;html=1;" vertex="1" parent="1">
          <mxGeometry x="2614" y="357" width="40" height="40" as="geometry" />
        </mxCell>
        <mxCell id="jo4Ov761HwDgIil726cr-13" style="edgeStyle=orthogonalEdgeStyle;rounded=0;orthogonalLoop=1;jettySize=auto;html=1;exitX=0.5;exitY=1;exitDx=0;exitDy=0;entryX=0.5;entryY=0;entryDx=0;entryDy=0;" edge="1" parent="1" source="jo4Ov761HwDgIil726cr-17" target="jo4Ov761HwDgIil726cr-18">
          <mxGeometry relative="1" as="geometry">
            <Array as="points">
              <mxPoint x="2047" y="307" />
              <mxPoint x="1893" y="307" />
            </Array>
          </mxGeometry>
        </mxCell>
        <mxCell id="jo4Ov761HwDgIil726cr-27" style="edgeStyle=orthogonalEdgeStyle;rounded=0;orthogonalLoop=1;jettySize=auto;html=1;exitX=0.5;exitY=1;exitDx=0;exitDy=0;entryX=0.5;entryY=0;entryDx=0;entryDy=0;fontSize=12;startSize=8;endSize=8;" edge="1" parent="1" source="jo4Ov761HwDgIil726cr-17" target="jo4Ov761HwDgIil726cr-22">
          <mxGeometry relative="1" as="geometry">
            <Array as="points">
              <mxPoint x="2047" y="307" />
              <mxPoint x="1970" y="307" />
            </Array>
          </mxGeometry>
        </mxCell>
        <mxCell id="jo4Ov761HwDgIil726cr-28" style="edgeStyle=orthogonalEdgeStyle;rounded=0;orthogonalLoop=1;jettySize=auto;html=1;exitX=0.5;exitY=1;exitDx=0;exitDy=0;fontSize=12;startSize=8;endSize=8;" edge="1" parent="1" source="jo4Ov761HwDgIil726cr-17" target="jo4Ov761HwDgIil726cr-23">
          <mxGeometry relative="1" as="geometry" />
        </mxCell>
        <mxCell id="jo4Ov761HwDgIil726cr-33" style="edgeStyle=orthogonalEdgeStyle;rounded=0;orthogonalLoop=1;jettySize=auto;html=1;exitX=0.5;exitY=1;exitDx=0;exitDy=0;fontSize=12;startSize=8;endSize=8;entryX=0.5;entryY=0;entryDx=0;entryDy=0;" edge="1" parent="1" source="jo4Ov761HwDgIil726cr-17" target="jo4Ov761HwDgIil726cr-25">
          <mxGeometry relative="1" as="geometry">
            <mxPoint x="2125.48" y="287.92" as="targetPoint" />
            <Array as="points">
              <mxPoint x="2047" y="307" />
              <mxPoint x="2201" y="307" />
            </Array>
          </mxGeometry>
        </mxCell>
        <mxCell id="jo4Ov761HwDgIil726cr-37" style="edgeStyle=orthogonalEdgeStyle;rounded=0;orthogonalLoop=1;jettySize=auto;html=1;exitX=0.5;exitY=1;exitDx=0;exitDy=0;entryX=0.5;entryY=0;entryDx=0;entryDy=0;fontSize=12;startSize=8;endSize=8;" edge="1" parent="1" source="jo4Ov761HwDgIil726cr-17" target="jo4Ov761HwDgIil726cr-24">
          <mxGeometry relative="1" as="geometry">
            <Array as="points">
              <mxPoint x="2047" y="307" />
              <mxPoint x="2124" y="307" />
            </Array>
          </mxGeometry>
        </mxCell>
        <mxCell id="jo4Ov761HwDgIil726cr-17" value="Язык программирования" style="rounded=0;whiteSpace=wrap;html=1;" vertex="1" parent="1">
          <mxGeometry x="1992" y="216" width="110" height="40" as="geometry" />
        </mxCell>
        <mxCell id="jo4Ov761HwDgIil726cr-18" value="Java" style="rounded=0;whiteSpace=wrap;html=1;" vertex="1" parent="1">
          <mxGeometry x="1871" y="357" width="44" height="40" as="geometry" />
        </mxCell>
        <mxCell id="jo4Ov761HwDgIil726cr-22" value="Python" style="rounded=0;whiteSpace=wrap;html=1;" vertex="1" parent="1">
          <mxGeometry x="1948" y="357" width="44" height="40" as="geometry" />
        </mxCell>
        <mxCell id="jo4Ov761HwDgIil726cr-23" value="PHP" style="rounded=0;whiteSpace=wrap;html=1;" vertex="1" parent="1">
          <mxGeometry x="2025" y="357" width="44" height="40" as="geometry" />
        </mxCell>
        <mxCell id="jo4Ov761HwDgIil726cr-24" value="R" style="rounded=0;whiteSpace=wrap;html=1;" vertex="1" parent="1">
          <mxGeometry x="2102" y="357" width="44" height="40" as="geometry" />
        </mxCell>
        <mxCell id="jo4Ov761HwDgIil726cr-25" value="Swift" style="rounded=0;whiteSpace=wrap;html=1;" vertex="1" parent="1">
          <mxGeometry x="2179" y="357" width="44" height="40" as="geometry" />
        </mxCell>
      </root>
    </mxGraphModel>
  </diagram>
</mxfile>
